<svg data-v-423bf9ae="" xmlns="http://www.w3.org/2000/svg" viewBox="0 0 463 90" class="iconLeft"><!----><!----><!----><g data-v-423bf9ae="" id="681588d5-a362-4412-8b30-7a56f91f3594" fill="white" transform="matrix(4.583651255101593,0,0,4.583651255101593,130.57286448797225,-27.12375358784419)"><path d="M1.74 18.14L1.74 10.88L1.74 10.88Q1.74 10.75 1.16 10.60L1.16 10.60L1.16 10.60Q0.59 10.45 0.59 10.33L0.59 10.33L0.59 10.33Q0.59 9.71 2.00 9.71L2.00 9.71L2.60 9.72L2.60 9.72Q2.72 9.72 2.93 9.90L2.93 9.90L2.93 9.90Q3.13 10.08 3.24 10.27L3.24 10.27L6.84 16.75L6.84 16.75Q7.91 15.03 10.30 10.99L10.30 10.99L10.30 11.00L10.30 11.00Q10.34 10.94 10.46 10.69L10.46 10.69L10.46 10.69Q10.59 10.45 10.67 10.33L10.67 10.33L10.67 10.33Q10.75 10.21 10.88 10.04L10.88 10.04L10.88 10.04Q11.15 9.72 11.54 9.72L11.54 9.72L12.04 9.71L12.04 9.71Q13.29 9.71 13.29 10.33L13.29 10.33L13.29 10.33Q13.29 10.54 12.70 10.61L12.70 10.61L12.70 10.61Q12.11 10.67 12.11 10.88L12.11 10.88L12.11 18.14L12.11 18.14Q12.11 18.27 12.41 18.36L12.41 18.36L12.41 18.36Q12.70 18.44 13.00 18.52L13.00 18.52L13.00 18.52Q13.29 18.59 13.29 18.70L13.29 18.70L13.29 18.70Q13.29 19.33 11.94 19.33L11.94 19.33L11.40 19.31L10.83 19.33L10.83 19.33Q9.49 19.33 9.49 18.70L9.49 18.70L9.49 18.70Q9.49 18.55 9.78 18.49L9.78 18.49L9.78 18.49Q10.06 18.43 10.35 18.37L10.35 18.37L10.35 18.37Q10.63 18.31 10.63 18.14L10.63 18.14L10.63 12.04L10.63 12.04Q10.50 12.27 9.45 14.18L9.45 14.18L9.45 14.18Q7.69 17.38 7.05 18.13L7.05 18.13L7.05 18.12L7.05 18.12Q6.86 18.31 6.70 18.31L6.70 18.31L6.70 18.31Q6.54 18.31 6.43 18.28L6.43 18.28L6.43 18.28Q6.33 18.25 6.25 18.17L6.25 18.17L6.25 18.17Q6.17 18.09 6.13 18.04L6.13 18.04L6.13 18.04Q6.09 17.99 6.02 17.86L6.02 17.86L6.02 17.86Q5.95 17.73 5.93 17.68L5.93 17.68L2.94 12.78L2.94 18.14L2.94 18.14Q2.94 18.27 3.23 18.36L3.23 18.36L3.23 18.36Q3.53 18.44 3.82 18.52L3.82 18.52L3.82 18.52Q4.12 18.59 4.12 18.70L4.12 18.70L4.12 18.70Q4.12 19.32 2.85 19.32L2.85 19.32L2.35 19.31L1.83 19.33L1.83 19.33Q0.59 19.33 0.59 18.70L0.59 18.70L0.59 18.70Q0.59 18.54 0.88 18.48L0.88 18.48L0.88 18.48Q1.16 18.43 1.45 18.37L1.45 18.37L1.45 18.37Q1.74 18.31 1.74 18.14L1.74 18.14ZM15.51 14.98L15.51 14.98L15.51 14.98Q15.25 14.98 14.93 14.78L14.93 14.78L14.93 14.78Q14.62 14.58 14.62 14.26L14.62 14.26L14.62 14.26Q14.62 13.93 14.80 13.64L14.80 13.64L14.80 13.64Q14.98 13.36 15.28 13.18L15.28 13.18L15.28 13.18Q15.57 13.00 15.96 12.87L15.96 12.87L15.96 12.87Q16.67 12.65 17.49 12.65L17.49 12.65L17.49 12.65Q18.87 12.65 19.50 13.26L19.50 13.26L19.50 13.26Q20.13 13.87 20.13 15.28L20.13 15.28L20.12 17.29L20.12 17.29Q20.12 18.03 20.30 18.21L20.30 18.21L20.30 18.21Q20.35 18.26 20.60 18.33L20.60 18.33L20.60 18.33Q21.30 18.55 21.30 18.67L21.30 18.67L21.30 18.67Q21.30 19.39 19.83 19.39L19.83 19.39L19.83 19.39Q19.28 19.39 19.11 19.14L19.11 19.14L19.11 19.14Q18.94 18.89 18.93 18.25L18.93 18.25L18.93 18.25Q18.62 18.80 17.99 19.14L17.99 19.14L17.99 19.14Q17.36 19.48 16.65 19.48L16.65 19.48L16.65 19.48Q15.93 19.48 15.43 19.30L15.43 19.30L15.43 19.30Q14.93 19.11 14.62 18.70L14.62 18.70L14.62 18.70Q14.31 18.29 14.31 17.81L14.31 17.81L14.31 17.81Q14.31 17.33 14.42 17.04L14.42 17.04L14.42 17.04Q14.53 16.75 14.69 16.55L14.69 16.55L14.69 16.55Q14.85 16.35 15.14 16.19L15.14 16.19L15.14 16.19Q15.42 16.04 15.67 15.94L15.67 15.94L15.67 15.94Q15.91 15.85 16.30 15.78L16.30 15.78L16.30 15.78Q16.88 15.67 17.27 15.62L17.27 15.62L17.27 15.62Q17.66 15.58 17.67 15.57L17.67 15.57L17.67 15.57Q17.71 15.57 18.14 15.52L18.14 15.52L18.14 15.52Q18.57 15.48 18.81 15.34L18.81 15.34L18.81 15.34Q18.81 14.04 18.46 13.64L18.46 13.64L18.46 13.64Q18.16 13.30 17.45 13.30L17.45 13.30L17.45 13.30Q16.75 13.30 16.40 13.66L16.40 13.66L16.40 13.66Q16.04 14.02 16.04 14.80L16.04 14.80L16.05 14.95L16.05 14.95Q15.76 14.98 15.51 14.98ZM18.81 15.96L18.81 15.96L18.81 15.96Q18.35 16.13 17.76 16.19L17.76 16.19L17.76 16.19Q17.18 16.26 16.84 16.34L16.84 16.34L16.84 16.34Q16.51 16.43 16.28 16.56L16.28 16.56L16.28 16.56Q15.76 16.86 15.76 17.60L15.76 17.60L15.76 17.60Q15.76 18.77 17.13 18.77L17.13 18.77L17.13 18.77Q18.31 18.77 18.63 17.64L18.63 17.64L18.63 17.64Q18.81 17.00 18.81 15.96ZM23.99 19.32L23.99 19.32L23.41 19.33L23.41 19.33Q22.51 19.33 22.30 19.05L22.30 19.05L22.30 19.05Q22.20 18.93 22.20 18.75L22.20 18.75L22.20 18.75Q22.20 18.58 22.34 18.51L22.34 18.51L22.34 18.51Q22.48 18.44 22.64 18.44L22.64 18.44L22.64 18.44Q22.81 18.43 22.95 18.33L22.95 18.33L22.95 18.33Q23.08 18.23 23.08 18.01L23.08 18.01L23.08 14.64L23.08 14.64Q23.08 14.03 22.94 13.88L22.94 13.88L22.94 13.88Q22.79 13.74 22.69 13.70L22.69 13.70L22.69 13.70Q22.59 13.66 22.38 13.60L22.38 13.60L22.38 13.60Q22.17 13.54 22.04 13.47L22.04 13.47L22.04 13.47Q21.90 13.41 21.90 13.29L21.90 13.29L21.90 13.29Q21.90 12.74 23.37 12.74L23.37 12.74L23.37 12.74Q23.99 12.74 24.16 12.96L24.16 12.96L24.16 12.96Q24.33 13.17 24.33 13.95L24.33 13.95L24.33 13.95Q24.56 13.36 25.10 13.03L25.10 13.03L25.10 13.03Q25.63 12.69 26.20 12.69L26.20 12.69L26.20 12.69Q26.76 12.69 27.13 12.94L27.13 12.94L27.13 12.94Q27.49 13.18 27.49 13.55L27.49 13.55L27.49 13.55Q27.49 13.92 27.25 14.15L27.25 14.15L27.25 14.15Q27.02 14.37 26.67 14.37L26.67 14.37L26.67 14.37Q26.32 14.37 26.07 14.18L26.07 14.18L26.07 14.18Q25.82 14 25.74 13.71L25.74 13.71L25.74 13.71Q25.57 13.68 25.45 13.68L25.45 13.68L25.45 13.68Q24.38 13.68 24.38 16.13L24.38 16.13L24.38 18.01L24.38 18.01Q24.38 18.41 24.82 18.43L24.82 18.43L24.82 18.43Q25.27 18.46 25.27 18.79L25.27 18.79L25.27 18.79Q25.27 19.16 24.86 19.25L24.86 19.25L24.86 19.25Q24.54 19.32 23.99 19.32ZM28.64 17.48L28.64 13.66L28.23 13.67L28.23 13.67Q27.97 13.67 27.86 13.62L27.86 13.62L27.86 13.62Q27.74 13.57 27.74 13.42L27.74 13.42L27.74 13.42Q27.74 13.26 27.87 13.14L27.87 13.14L27.87 13.14Q28.01 13.01 28.18 12.94L28.18 12.94L28.18 12.94Q28.65 12.75 28.74 12.62L28.74 12.62L28.74 12.62Q28.83 12.48 29.02 12.03L29.02 12.03L29.02 12.03Q29.48 10.90 29.78 10.90L29.78 10.90L29.78 10.90Q29.94 10.90 29.97 11.24L29.97 11.24L29.97 11.24Q29.99 11.58 29.99 11.76L29.99 11.76L29.99 11.76Q30.00 11.94 29.99 12.29L29.99 12.29L29.99 12.29Q29.98 12.64 29.98 12.78L29.98 12.78L31.61 12.78L31.61 12.78Q31.85 12.78 32.01 12.90L32.01 12.90L32.01 12.90Q32.18 13.02 32.18 13.22L32.18 13.22L32.18 13.22Q32.18 13.42 32.02 13.53L32.02 13.53L32.02 13.53Q31.86 13.64 31.62 13.64L31.62 13.64L29.98 13.64L29.98 17.13L29.98 17.13Q29.98 18.61 30.72 18.61L30.72 18.61L30.72 18.61Q30.93 18.61 31.33 18.49L31.33 18.49L31.33 18.49Q31.73 18.36 31.86 18.36L31.86 18.36L31.86 18.36Q32.14 18.36 32.14 18.68L32.14 18.68L32.14 18.68Q32.14 18.94 31.48 19.19L31.48 19.19L31.48 19.19Q30.82 19.44 30.12 19.44L30.12 19.44L30.12 19.44Q29.43 19.44 29.04 18.90L29.04 18.90L29.04 18.90Q28.64 18.36 28.64 17.48L28.64 17.48ZM33.99 10.74L33.99 10.74L33.99 10.74Q33.99 10.44 34.28 10.18L34.28 10.18L34.28 10.18Q34.57 9.91 34.91 9.91L34.91 9.91L34.91 9.91Q35.26 9.91 35.58 10.12L35.58 10.12L35.58 10.12Q35.91 10.34 35.91 10.68L35.91 10.68L35.91 10.68Q35.91 11.03 35.64 11.27L35.64 11.27L35.64 11.27Q35.36 11.50 34.97 11.50L34.97 11.50L34.97 11.50Q34.57 11.50 34.28 11.29L34.28 11.29L34.28 11.29Q33.99 11.07 33.99 10.74ZM35.42 19.32L35.42 19.32L34.83 19.33L34.83 19.33Q33.93 19.33 33.72 19.05L33.72 19.05L33.72 19.05Q33.63 18.93 33.63 18.75L33.63 18.75L33.63 18.75Q33.63 18.58 33.76 18.51L33.76 18.51L33.76 18.51Q33.90 18.44 34.07 18.44L34.07 18.44L34.07 18.44Q34.23 18.43 34.37 18.33L34.37 18.33L34.37 18.33Q34.51 18.23 34.51 18.01L34.51 18.01L34.51 14.33L34.51 14.33Q34.51 13.71 34.02 13.67L34.02 13.67L34.02 13.67Q33.97 13.66 33.90 13.65L33.90 13.65L33.90 13.65Q33.82 13.64 33.79 13.64L33.79 13.64L33.79 13.64Q33.76 13.64 33.70 13.63L33.70 13.63L33.70 13.63Q33.65 13.62 33.63 13.60L33.63 13.60L33.63 13.60Q33.61 13.59 33.58 13.57L33.58 13.57L33.58 13.57Q33.53 13.54 33.53 13.37L33.53 13.37L33.53 13.37Q33.53 13.21 33.74 13.04L33.74 13.04L33.74 13.04Q34.13 12.73 34.77 12.73L34.77 12.73L34.77 12.73Q35.38 12.73 35.48 12.78L35.48 12.78L35.48 12.78Q35.59 12.82 35.66 12.88L35.66 12.88L35.66 12.88Q35.81 12.97 35.81 13.24L35.81 13.24L35.81 18.01L35.81 18.01Q35.81 18.41 36.25 18.43L36.25 18.43L36.25 18.43Q36.69 18.46 36.69 18.79L36.69 18.79L36.69 18.79Q36.69 19.16 36.28 19.25L36.28 19.25L36.28 19.25Q35.96 19.32 35.42 19.32ZM39.69 19.32L39.69 19.32L39.10 19.33L39.10 19.33Q38.21 19.33 37.99 19.05L37.99 19.05L37.99 19.05Q37.90 18.93 37.90 18.75L37.90 18.75L37.90 18.75Q37.90 18.58 38.04 18.51L38.04 18.51L38.04 18.51Q38.17 18.44 38.34 18.44L38.34 18.44L38.34 18.44Q38.51 18.43 38.64 18.33L38.64 18.33L38.64 18.33Q38.78 18.23 38.78 18.01L38.78 18.01L38.78 14.11L38.78 14.11Q38.78 13.71 38.29 13.63L38.29 13.63L38.29 13.63Q37.95 13.58 37.87 13.51L37.87 13.51L37.87 13.51Q37.80 13.45 37.80 13.28L37.80 13.28L37.80 13.28Q37.80 13.11 38.04 12.97L38.04 12.97L38.04 12.97Q38.45 12.73 39.06 12.73L39.06 12.73L39.06 12.73Q39.67 12.73 39.84 12.90L39.84 12.90L39.84 12.90Q40.02 13.08 40.02 13.68L40.02 13.68L40.02 13.68Q40.95 12.62 42.59 12.62L42.59 12.62L42.59 12.62Q43.93 12.62 44.48 13.35L44.48 13.35L44.48 13.35Q45.04 14.08 45.04 15.55L45.04 15.55L45.04 18.01L45.04 18.01Q45.04 18.41 45.48 18.43L45.48 18.43L45.48 18.43Q45.92 18.46 45.92 18.79L45.92 18.79L45.92 18.79Q45.92 19.15 45.50 19.25L45.50 19.25L45.50 19.25Q45.19 19.32 44.63 19.32L44.63 19.32L44.04 19.33L44.04 19.33Q43.15 19.33 42.94 19.05L42.94 19.05L42.94 19.05Q42.84 18.93 42.84 18.75L42.84 18.75L42.84 18.75Q42.84 18.58 42.98 18.51L42.98 18.51L42.98 18.51Q43.11 18.44 43.28 18.44L43.28 18.44L43.28 18.44Q43.45 18.43 43.59 18.33L43.59 18.33L43.59 18.33Q43.72 18.23 43.72 18.01L43.72 18.01L43.72 16.02L43.72 16.02Q43.72 14.75 43.43 14.16L43.43 14.16L43.43 14.16Q43.10 13.50 42.11 13.50L42.11 13.50L42.11 13.50Q40.91 13.50 40.48 14.14L40.48 14.14L40.48 14.14Q40.08 14.74 40.08 16.06L40.08 16.06L40.08 18.01L40.08 18.01Q40.08 18.41 40.52 18.43L40.52 18.43L40.52 18.43Q40.96 18.46 40.96 18.79L40.96 18.79L40.96 18.79Q40.96 19.16 40.54 19.25L40.54 19.25L40.54 19.25Q40.24 19.32 39.69 19.32ZM53.04 15.07L53.04 15.07L53.04 15.07Q53.04 15.69 52.57 16.16L52.57 16.16L52.57 16.16Q51.65 17.08 49.94 17.08L49.94 17.08L49.94 17.08Q49.60 17.08 49.23 17.02L49.23 17.02L49.23 17.02Q48.85 16.95 48.75 16.94L48.75 16.94L48.75 16.93L48.75 16.93Q48.23 17.37 48.23 17.70L48.23 17.70L48.23 17.70Q48.23 18.00 48.53 18.10L48.53 18.10L48.53 18.10Q48.95 18.25 49.69 18.27L49.69 18.27L49.69 18.27Q50.44 18.28 50.85 18.29L50.85 18.29L50.85 18.29Q51.27 18.30 51.75 18.33L51.75 18.33L51.75 18.33Q52.24 18.37 52.61 18.47L52.61 18.47L52.61 18.47Q52.98 18.57 53.30 18.73L53.30 18.73L53.30 18.73Q53.96 19.07 53.96 19.89L53.96 19.89L53.96 19.89Q53.96 20.51 53.63 20.98L53.63 20.98L53.63 20.98Q53.31 21.45 52.77 21.72L52.77 21.72L52.77 21.72Q51.70 22.28 50.22 22.28L50.22 22.28L50.22 22.28Q48.93 22.28 47.95 21.92L47.95 21.92L47.95 21.92Q47.43 21.73 47.12 21.36L47.12 21.36L47.12 21.36Q46.81 20.99 46.81 20.47L46.81 20.47L46.81 20.47Q46.81 19.50 47.79 18.97L47.79 18.97L47.79 18.97Q47.53 18.72 47.44 18.49L47.44 18.49L47.44 18.49Q47.35 18.27 47.35 17.96L47.35 17.96L47.35 17.96Q47.35 17.66 47.40 17.50L47.40 17.50L47.40 17.50Q47.46 17.34 47.57 17.20L47.57 17.20L47.57 17.20Q47.72 17.02 48.13 16.71L48.13 16.71L48.13 16.71Q47.49 16.39 47.15 15.99L47.15 15.99L47.15 15.99Q46.81 15.59 46.81 14.98L46.81 14.98L46.81 14.98Q46.81 14.37 47.10 13.92L47.10 13.92L47.10 13.92Q47.38 13.47 47.84 13.20L47.84 13.20L47.84 13.20Q48.79 12.66 49.95 12.66L49.95 12.66L49.95 12.66Q50.28 12.66 51.18 12.83L51.18 12.83L51.18 12.83Q52.08 13.00 52.19 13.00L52.19 13.00L52.19 13.00Q52.79 13.00 52.90 12.39L52.90 12.39L52.90 12.39Q53.77 12.39 53.77 13.08L53.77 13.08L53.77 13.08Q53.77 13.42 53.57 13.61L53.57 13.61L53.57 13.61Q53.37 13.81 53.10 13.81L53.10 13.81L53.10 13.81Q52.84 13.81 52.54 13.78L52.54 13.78L52.54 13.78Q52.74 13.95 52.89 14.31L52.89 14.31L52.89 14.31Q53.04 14.68 53.04 15.07ZM49.98 13.25L49.98 13.25L49.98 13.25Q49.24 13.25 48.72 13.68L48.72 13.68L48.72 13.68Q48.21 14.11 48.21 14.81L48.21 14.81L48.21 14.81Q48.21 15.52 48.74 15.97L48.74 15.97L48.74 15.97Q49.27 16.42 50.03 16.42L50.03 16.42L50.03 16.42Q50.80 16.42 51.27 16.00L51.27 16.00L51.27 16.00Q51.75 15.58 51.75 14.90L51.75 14.90L51.75 14.90Q51.75 14.23 51.23 13.74L51.23 13.74L51.23 13.74Q50.72 13.25 49.98 13.25ZM50.09 21.48L50.09 21.48L50.09 21.48Q51.15 21.48 51.69 21.26L51.69 21.26L51.69 21.26Q52.24 21.03 52.45 20.74L52.45 20.74L52.45 20.74Q52.66 20.45 52.66 20.05L52.66 20.05L52.66 20.05Q52.66 19.21 49.40 19.21L49.40 19.21L49.40 19.21Q48.47 19.21 48.47 19.19L48.47 19.19L48.47 19.19Q47.95 19.71 47.95 20.19L47.95 20.19L47.95 20.19Q47.95 21.48 50.09 21.48ZM55.75 14.98L55.75 14.98L55.75 14.98Q55.49 14.98 55.18 14.78L55.18 14.78L55.18 14.78Q54.86 14.58 54.86 14.26L54.86 14.26L54.86 14.26Q54.86 13.93 55.04 13.64L55.04 13.64L55.04 13.64Q55.23 13.36 55.52 13.18L55.52 13.18L55.52 13.18Q55.82 13.00 56.21 12.87L56.21 12.87L56.21 12.87Q56.92 12.65 57.74 12.65L57.74 12.65L57.74 12.65Q59.12 12.65 59.74 13.26L59.74 13.26L59.74 13.26Q60.37 13.87 60.37 15.28L60.37 15.28L60.36 17.29L60.36 17.29Q60.36 18.03 60.55 18.21L60.55 18.21L60.55 18.21Q60.59 18.26 60.85 18.33L60.85 18.33L60.85 18.33Q61.54 18.55 61.54 18.67L61.54 18.67L61.54 18.67Q61.54 19.39 60.07 19.39L60.07 19.39L60.07 19.39Q59.52 19.39 59.35 19.14L59.35 19.14L59.35 19.14Q59.19 18.89 59.17 18.25L59.17 18.25L59.17 18.25Q58.86 18.80 58.24 19.14L58.24 19.14L58.24 19.14Q57.61 19.48 56.89 19.48L56.89 19.48L56.89 19.48Q56.17 19.48 55.67 19.30L55.67 19.30L55.67 19.30Q55.17 19.11 54.86 18.70L54.86 18.70L54.86 18.70Q54.55 18.29 54.55 17.81L54.55 17.81L54.55 17.81Q54.55 17.33 54.66 17.04L54.66 17.04L54.66 17.04Q54.77 16.75 54.93 16.55L54.93 16.55L54.93 16.55Q55.10 16.35 55.38 16.19L55.38 16.19L55.38 16.19Q55.67 16.04 55.91 15.94L55.91 15.94L55.91 15.94Q56.16 15.85 56.55 15.78L56.55 15.78L56.55 15.78Q57.12 15.67 57.51 15.62L57.51 15.62L57.51 15.62Q57.90 15.58 57.91 15.57L57.91 15.57L57.91 15.57Q57.96 15.57 58.38 15.52L58.38 15.52L58.38 15.52Q58.81 15.48 59.06 15.34L59.06 15.34L59.06 15.34Q59.06 14.04 58.71 13.64L58.71 13.64L58.71 13.64Q58.40 13.30 57.70 13.30L57.70 13.30L57.70 13.30Q56.99 13.30 56.64 13.66L56.64 13.66L56.64 13.66Q56.29 14.02 56.29 14.80L56.29 14.80L56.29 14.95L56.29 14.95Q56.01 14.98 55.75 14.98ZM59.06 15.96L59.06 15.96L59.06 15.96Q58.59 16.13 58.01 16.19L58.01 16.19L58.01 16.19Q57.42 16.26 57.09 16.34L57.09 16.34L57.09 16.34Q56.75 16.43 56.53 16.56L56.53 16.56L56.53 16.56Q56.01 16.86 56.01 17.60L56.01 17.60L56.01 17.60Q56.01 18.77 57.37 18.77L57.37 18.77L57.37 18.77Q58.56 18.77 58.87 17.64L58.87 17.64L58.87 17.64Q59.06 17.00 59.06 15.96ZM64.22 19.32L64.22 19.32L63.64 19.33L63.64 19.33Q62.74 19.33 62.53 19.05L62.53 19.05L62.53 19.05Q62.43 18.93 62.43 18.75L62.43 18.75L62.43 18.75Q62.43 18.58 62.57 18.51L62.57 18.51L62.57 18.51Q62.71 18.44 62.87 18.44L62.87 18.44L62.87 18.44Q63.03 18.43 63.17 18.33L63.17 18.33L63.17 18.33Q63.31 18.23 63.31 18.01L63.31 18.01L63.31 10.79L63.31 10.79Q63.31 10.17 62.82 10.12L62.82 10.12L62.82 10.12Q62.77 10.12 62.69 10.11L62.69 10.11L62.69 10.11Q62.62 10.10 62.58 10.10L62.58 10.10L62.58 10.10Q62.55 10.10 62.50 10.09L62.50 10.09L62.50 10.09Q62.45 10.08 62.42 10.06L62.42 10.06L62.42 10.06Q62.40 10.05 62.38 10.03L62.38 10.03L62.38 10.03Q62.33 9.99 62.33 9.83L62.33 9.83L62.33 9.83Q62.33 9.67 62.54 9.50L62.54 9.50L62.54 9.50Q62.92 9.19 63.57 9.19L63.57 9.19L63.57 9.19Q64.26 9.19 64.38 9.27L64.38 9.27L64.38 9.27Q64.61 9.43 64.61 9.70L64.61 9.70L64.61 18.01L64.61 18.01Q64.61 18.41 65.05 18.43L65.05 18.43L65.05 18.43Q65.50 18.46 65.50 18.79L65.50 18.79L65.50 18.79Q65.50 19.16 65.08 19.25L65.08 19.25L65.08 19.25Q64.77 19.32 64.22 19.32ZM67.15 18.57L67.15 18.57L67.15 18.57Q66.21 17.64 66.21 16.11L66.21 16.11L66.21 16.11Q66.21 14.57 67.16 13.61L67.16 13.61L67.16 13.61Q68.11 12.65 69.59 12.65L69.59 12.65L69.59 12.65Q70.76 12.65 71.56 13.40L71.56 13.40L71.56 13.40Q72.37 14.16 72.37 15.30L72.37 15.30L72.37 15.30Q72.37 15.85 71.49 15.85L71.49 15.85L67.53 15.85L67.53 15.85Q67.55 16.96 68.25 17.72L68.25 17.72L68.25 17.72Q68.95 18.48 70.03 18.48L70.03 18.48L70.03 18.48Q70.74 18.48 71.41 18.06L71.41 18.06L71.41 18.06Q71.76 17.84 71.86 17.84L71.86 17.84L71.86 17.84Q71.96 17.84 72.09 17.94L72.09 17.94L72.09 17.94Q72.21 18.04 72.21 18.18L72.21 18.18L72.21 18.18Q72.21 18.56 71.73 18.88L71.73 18.88L71.73 18.88Q71.25 19.20 70.67 19.35L70.67 19.35L70.67 19.35Q70.09 19.50 69.65 19.50L69.65 19.50L69.65 19.50Q68.10 19.50 67.15 18.57ZM71.11 15.13L71.11 15.13L71.11 15.13Q71.09 14.35 70.70 13.86L70.70 13.86L70.70 13.86Q70.30 13.36 69.54 13.36L69.54 13.36L69.54 13.36Q68.78 13.36 68.21 13.91L68.21 13.91L68.21 13.91Q67.63 14.46 67.60 15.16L67.60 15.16L69.20 15.16L69.20 15.16Q70.27 15.16 71.11 15.13Z"></path></g><!----><g data-v-423bf9ae="" id="9a7456ea-f580-4ba1-896e-a3097acd805c" transform="matrix(1.32364123870095,0,0,1.32364123870095,-8.972063467871521,-21.179230826883654)" stroke="none" fill="white"><path d="M50.063 16.003c3.323 0 5.996 2.66 5.996 5.966 0 3.308-2.673 5.967-5.996 5.967-3.324 0-5.997-2.66-5.997-5.967 0-3.307 2.673-5.966 5.997-5.966zM32.072 27.936c3.324 0 5.997 2.66 5.997 5.967 0 3.307-2.673 5.966-5.997 5.966s-5.997-2.66-5.997-5.966c0-3.307 2.673-5.967 5.997-5.967zm35.981 0c3.324 0 5.997 2.66 5.997 5.967 0 3.307-2.673 5.966-5.997 5.966s-5.997-2.66-5.997-5.966c0-3.307 2.673-5.967 5.997-5.967zm-53.69 4.941c.755.615 1.323 1.652 1.78 2.424.864 4.487 2.182 7.76 4.154 11.529-1.02-.479-2.091-.51-3.123-.435-2.184-5.439-2.734-9.713-2.811-13.518zm71.274 0c-.077 4.657-.538 7.046-2.81 13.518-1.076-.196-2.226.15-3.124.435 1.966-3.759 3.259-7.03 4.123-11.498.26-.999 1.154-1.917 1.811-2.455zM18.36 35.52c1.311 1.678 2.58 3.833 3.967 6.246.276 3.232 1.038 5.678 2.186 8.142-.15-.117-.315-.253-.468-.373-2.595-4.82-5.604-10.467-5.685-14.015zm63.373 0c-1.084 5.277-2.78 8.703-5.778 14.015-.153.12-.317.256-.468.373 1.148-2.464 1.91-4.91 2.186-8.142 1.304-2.163 2.638-4.558 4.06-6.246zM8.178 39.434c.593.119 1.52.643 2.437 1.492 1.834 1.697 3.723 4.507 4.778 6.432-.423.427-.792.959-.937 1.647-.216 1.027.253 2.21 1.375 3.17 3.954 3.835 7.912 7.666 11.868 11.499.376.366 1.054.358 1.421-.016.368-.374.361-1.048-.015-1.414-3.975-3.842-7.962-7.69-11.931-11.529-.822-.678-.81-1.016-.75-1.305.056-.269.35-.633.718-.901 1.4-.416 2.447.14 3.561.9 4.106 3.133 8.242 6.069 11.931 7.8 3.267 1.367 4.957 2.359 6.278 4.195.84 1.202 1.462 3.04 2.374 5.593-1.775.271-3.493.714-5.029 1.46a10.605 10.605 0 0 0-3.31 2.487c-4.118-3.866-8.241-6.366-11.963-8.39-2.388-3.128-4.79-6.308-6.84-8.981-1.79-4.564-4.479-9.632-6.934-13.86.34-.406.61-.219.968-.28zm84.612.28c-2.455 4.227-5.144 9.295-6.934 13.86-2.391 3.11-4.8 6.308-6.84 8.98-3.722 2.025-7.845 4.525-11.962 8.39a10.605 10.605 0 0 0-3.311-2.485c-1.536-.747-3.254-1.19-5.029-1.46.912-2.554 1.535-4.392 2.374-5.595 1.713-2.284 2.56-2.816 6.31-4.226 4.762-2.207 7.799-4.445 11.805-7.707 1.147-.958 2.65-1.395 3.655-.962.367.268.661.633.718.9.107.556-.182.83-.812 1.368L70.895 62.244c-.376.366-.383 1.04-.015 1.414.367.374 1.045.382 1.42.016 3.953-3.831 7.926-7.673 11.87-11.499 1.121-.96 1.59-2.143 1.374-3.17-.145-.688-.514-1.22-.937-1.647 1.055-1.925 2.944-4.735 4.778-6.432.917-.85 1.844-1.373 2.437-1.492.374-.089.714.077.968.28zM24.7 44.499c1.435 2.975 2.908 5.718 5.217 9.075a40.891 40.891 0 0 1-1.843-1.12c-1.598-2.918-2.752-5.149-3.373-7.955zm50.6 0c-.622 2.806-1.776 5.037-3.374 7.956-.592.384-1.214.756-1.843 1.119 2.309-3.357 3.782-6.1 5.216-9.075zM43.128 68.956c1.572 4.589 1.856 8.949 1.874 14.078-4.367 1.366-6.596 1.119-10.495.248-.012-3.263-.192-5.702-1.374-8.856.786-1.74 2.47-3.343 3.998-4.196 2.016-.828 4.124-1.126 5.997-1.274zm13.742 0c2.084.147 4.23.43 5.997 1.275 1.877 1.25 3.114 2.347 3.998 4.195-1.182 3.154-1.362 5.593-1.374 8.856-3.899.871-6.128 1.119-10.495-.248-.174-5.347.248-9.9 1.874-14.078zm-14.898 1.399c-.946 0-1.718.799-1.718 1.74 0 .94.772 1.709 1.718 1.709s1.75-.768 1.75-1.71c0-.94-.804-1.74-1.75-1.74zm16.054 0c-.946 0-1.749.799-1.749 1.74 0 .94.803 1.709 1.75 1.709.945 0 1.717-.768 1.717-1.71 0-.94-.772-1.74-1.718-1.74zm-16.054 1.46c.135 0 .281.146.281.28 0 .134-.146.248-.281.248a.254.254 0 0 1-.25-.248c0-.134.115-.28.25-.28zm16.054 0c.135 0 .25.146.25.28a.254.254 0 0 1-.25.248c-.135 0-.281-.114-.281-.248s.146-.28.281-.28z" style="text-indent:0;text-transform:none;block-progression:tb" overflow="visible" color="#000"></path></g><!----></svg>