<svg data-v-423bf9ae="" xmlns="http://www.w3.org/2000/svg" viewBox="0 0 75.51814642112453 60" class="icon"><!----><!----><!----><!----><g data-v-423bf9ae="" id="5591ba4a-76d4-4b28-b497-7d2402cc9a6c" transform="matrix(0.8824274924672999,0,0,0.8824274924672999,-6.36230304901558,-14.121487390855371)" stroke="none" fill="black"><path d="M50.063 16.003c3.323 0 5.996 2.66 5.996 5.966 0 3.308-2.673 5.967-5.996 5.967-3.324 0-5.997-2.66-5.997-5.967 0-3.307 2.673-5.966 5.997-5.966zM32.072 27.936c3.324 0 5.997 2.66 5.997 5.967 0 3.307-2.673 5.966-5.997 5.966s-5.997-2.66-5.997-5.966c0-3.307 2.673-5.967 5.997-5.967zm35.981 0c3.324 0 5.997 2.66 5.997 5.967 0 3.307-2.673 5.966-5.997 5.966s-5.997-2.66-5.997-5.966c0-3.307 2.673-5.967 5.997-5.967zm-53.69 4.941c.755.615 1.323 1.652 1.78 2.424.864 4.487 2.182 7.76 4.154 11.529-1.02-.479-2.091-.51-3.123-.435-2.184-5.439-2.734-9.713-2.811-13.518zm71.274 0c-.077 4.657-.538 7.046-2.81 13.518-1.076-.196-2.226.15-3.124.435 1.966-3.759 3.259-7.03 4.123-11.498.26-.999 1.154-1.917 1.811-2.455zM18.36 35.52c1.311 1.678 2.58 3.833 3.967 6.246.276 3.232 1.038 5.678 2.186 8.142-.15-.117-.315-.253-.468-.373-2.595-4.82-5.604-10.467-5.685-14.015zm63.373 0c-1.084 5.277-2.78 8.703-5.778 14.015-.153.12-.317.256-.468.373 1.148-2.464 1.91-4.91 2.186-8.142 1.304-2.163 2.638-4.558 4.06-6.246zM8.178 39.434c.593.119 1.52.643 2.437 1.492 1.834 1.697 3.723 4.507 4.778 6.432-.423.427-.792.959-.937 1.647-.216 1.027.253 2.21 1.375 3.17 3.954 3.835 7.912 7.666 11.868 11.499.376.366 1.054.358 1.421-.016.368-.374.361-1.048-.015-1.414-3.975-3.842-7.962-7.69-11.931-11.529-.822-.678-.81-1.016-.75-1.305.056-.269.35-.633.718-.901 1.4-.416 2.447.14 3.561.9 4.106 3.133 8.242 6.069 11.931 7.8 3.267 1.367 4.957 2.359 6.278 4.195.84 1.202 1.462 3.04 2.374 5.593-1.775.271-3.493.714-5.029 1.46a10.605 10.605 0 0 0-3.31 2.487c-4.118-3.866-8.241-6.366-11.963-8.39-2.388-3.128-4.79-6.308-6.84-8.981-1.79-4.564-4.479-9.632-6.934-13.86.34-.406.61-.219.968-.28zm84.612.28c-2.455 4.227-5.144 9.295-6.934 13.86-2.391 3.11-4.8 6.308-6.84 8.98-3.722 2.025-7.845 4.525-11.962 8.39a10.605 10.605 0 0 0-3.311-2.485c-1.536-.747-3.254-1.19-5.029-1.46.912-2.554 1.535-4.392 2.374-5.595 1.713-2.284 2.56-2.816 6.31-4.226 4.762-2.207 7.799-4.445 11.805-7.707 1.147-.958 2.65-1.395 3.655-.962.367.268.661.633.718.9.107.556-.182.83-.812 1.368L70.895 62.244c-.376.366-.383 1.04-.015 1.414.367.374 1.045.382 1.42.016 3.953-3.831 7.926-7.673 11.87-11.499 1.121-.96 1.59-2.143 1.374-3.17-.145-.688-.514-1.22-.937-1.647 1.055-1.925 2.944-4.735 4.778-6.432.917-.85 1.844-1.373 2.437-1.492.374-.089.714.077.968.28zM24.7 44.499c1.435 2.975 2.908 5.718 5.217 9.075a40.891 40.891 0 0 1-1.843-1.12c-1.598-2.918-2.752-5.149-3.373-7.955zm50.6 0c-.622 2.806-1.776 5.037-3.374 7.956-.592.384-1.214.756-1.843 1.119 2.309-3.357 3.782-6.1 5.216-9.075zM43.128 68.956c1.572 4.589 1.856 8.949 1.874 14.078-4.367 1.366-6.596 1.119-10.495.248-.012-3.263-.192-5.702-1.374-8.856.786-1.74 2.47-3.343 3.998-4.196 2.016-.828 4.124-1.126 5.997-1.274zm13.742 0c2.084.147 4.23.43 5.997 1.275 1.877 1.25 3.114 2.347 3.998 4.195-1.182 3.154-1.362 5.593-1.374 8.856-3.899.871-6.128 1.119-10.495-.248-.174-5.347.248-9.9 1.874-14.078zm-14.898 1.399c-.946 0-1.718.799-1.718 1.74 0 .94.772 1.709 1.718 1.709s1.75-.768 1.75-1.71c0-.94-.804-1.74-1.75-1.74zm16.054 0c-.946 0-1.749.799-1.749 1.74 0 .94.803 1.709 1.75 1.709.945 0 1.717-.768 1.717-1.71 0-.94-.772-1.74-1.718-1.74zm-16.054 1.46c.135 0 .281.146.281.28 0 .134-.146.248-.281.248a.254.254 0 0 1-.25-.248c0-.134.115-.28.25-.28zm16.054 0c.135 0 .25.146.25.28a.254.254 0 0 1-.25.248c-.135 0-.281-.114-.281-.248s.146-.28.281-.28z" style="text-indent:0;text-transform:none;block-progression:tb" overflow="visible" color="#000"></path></g><!----></svg>